<svg width="379" height="150" viewBox="0 0 379 150" fill="none" xmlns="http://www.w3.org/2000/svg">
<mask id="path-1-outside-1_4_74" maskUnits="userSpaceOnUse" x="251.248" y="39" width="128" height="66" fill="black">
<rect fill="white" x="251.248" y="39" width="128" height="66"/>
<path d="M252.778 40.57H261.108L266.778 75.08L278.538 43.58H283.578L289.808 75.22L302.758 40.57H311.158L292.818 86H284.978L279.728 60.38L269.648 86H261.878L252.778 40.57ZM321.229 86.98C318.662 86.98 316.527 86.4783 314.824 85.475C313.144 84.4483 311.919 83.1067 311.149 81.45C310.402 79.77 310.122 77.9733 310.309 76.06C310.495 73.89 311.172 72.07 312.339 70.6C313.505 69.13 315.069 68.0217 317.029 67.275C318.989 66.505 321.24 66.12 323.784 66.12C325.277 66.12 326.7 66.2483 328.054 66.505C329.407 66.7383 330.725 67.0533 332.009 67.45L332.359 64.09C332.615 61.71 332.347 59.9483 331.554 58.805C330.784 57.6617 329.384 57.09 327.354 57.09C326.14 57.09 325.067 57.2883 324.134 57.685C323.224 58.0817 322.489 58.6533 321.929 59.4C321.392 60.1233 321.065 61.01 320.949 62.06H312.829C313.062 59.4233 313.855 57.3 315.209 55.69C316.562 54.08 318.289 52.9133 320.389 52.19C322.512 51.4433 324.834 51.07 327.354 51.07C331.81 51.07 335.1 52.1667 337.224 54.36C339.347 56.53 340.199 59.8667 339.779 64.37L337.749 86H331.309C331.262 85.23 331.239 84.46 331.239 83.69C331.239 82.92 331.215 82.15 331.169 81.38C329.979 83.2233 328.602 84.6233 327.039 85.58C325.475 86.5133 323.539 86.98 321.229 86.98ZM323.329 80.68C324.799 80.68 326.117 80.3417 327.284 79.665C328.45 78.965 329.407 78.02 330.154 76.83C330.9 75.6167 331.355 74.24 331.519 72.7C330.515 72.3967 329.395 72.14 328.159 71.93C326.945 71.6967 325.79 71.58 324.694 71.58C322.99 71.58 321.52 71.93 320.284 72.63C319.047 73.3067 318.359 74.45 318.219 76.06C318.125 77.39 318.545 78.4983 319.479 79.385C320.412 80.2483 321.695 80.68 323.329 80.68ZM349.534 103.57C348.111 103.57 346.723 103.383 345.369 103.01C344.016 102.66 342.674 102.1 341.344 101.33L342.044 94.05C343.094 94.8433 344.144 95.4267 345.194 95.8C346.244 96.1733 347.318 96.36 348.414 96.36C349.394 96.36 350.281 96.0567 351.074 95.45C351.891 94.8667 352.626 94.0383 353.279 92.965C353.933 91.915 354.528 90.69 355.064 89.29L356.324 86L347.224 51.98H355.694L360.734 76.48L369.484 51.98H377.044L361.434 92.16C360.384 94.8433 359.253 97.025 358.039 98.705C356.849 100.385 355.554 101.61 354.154 102.38C352.754 103.173 351.214 103.57 349.534 103.57Z"/>
</mask>
<path d="M252.778 40.57H261.108L266.778 75.08L278.538 43.58H283.578L289.808 75.22L302.758 40.57H311.158L292.818 86H284.978L279.728 60.38L269.648 86H261.878L252.778 40.57ZM321.229 86.98C318.662 86.98 316.527 86.4783 314.824 85.475C313.144 84.4483 311.919 83.1067 311.149 81.45C310.402 79.77 310.122 77.9733 310.309 76.06C310.495 73.89 311.172 72.07 312.339 70.6C313.505 69.13 315.069 68.0217 317.029 67.275C318.989 66.505 321.24 66.12 323.784 66.12C325.277 66.12 326.7 66.2483 328.054 66.505C329.407 66.7383 330.725 67.0533 332.009 67.45L332.359 64.09C332.615 61.71 332.347 59.9483 331.554 58.805C330.784 57.6617 329.384 57.09 327.354 57.09C326.14 57.09 325.067 57.2883 324.134 57.685C323.224 58.0817 322.489 58.6533 321.929 59.4C321.392 60.1233 321.065 61.01 320.949 62.06H312.829C313.062 59.4233 313.855 57.3 315.209 55.69C316.562 54.08 318.289 52.9133 320.389 52.19C322.512 51.4433 324.834 51.07 327.354 51.07C331.81 51.07 335.1 52.1667 337.224 54.36C339.347 56.53 340.199 59.8667 339.779 64.37L337.749 86H331.309C331.262 85.23 331.239 84.46 331.239 83.69C331.239 82.92 331.215 82.15 331.169 81.38C329.979 83.2233 328.602 84.6233 327.039 85.58C325.475 86.5133 323.539 86.98 321.229 86.98ZM323.329 80.68C324.799 80.68 326.117 80.3417 327.284 79.665C328.45 78.965 329.407 78.02 330.154 76.83C330.9 75.6167 331.355 74.24 331.519 72.7C330.515 72.3967 329.395 72.14 328.159 71.93C326.945 71.6967 325.79 71.58 324.694 71.58C322.99 71.58 321.52 71.93 320.284 72.63C319.047 73.3067 318.359 74.45 318.219 76.06C318.125 77.39 318.545 78.4983 319.479 79.385C320.412 80.2483 321.695 80.68 323.329 80.68ZM349.534 103.57C348.111 103.57 346.723 103.383 345.369 103.01C344.016 102.66 342.674 102.1 341.344 101.33L342.044 94.05C343.094 94.8433 344.144 95.4267 345.194 95.8C346.244 96.1733 347.318 96.36 348.414 96.36C349.394 96.36 350.281 96.0567 351.074 95.45C351.891 94.8667 352.626 94.0383 353.279 92.965C353.933 91.915 354.528 90.69 355.064 89.29L356.324 86L347.224 51.98H355.694L360.734 76.48L369.484 51.98H377.044L361.434 92.16C360.384 94.8433 359.253 97.025 358.039 98.705C356.849 100.385 355.554 101.61 354.154 102.38C352.754 103.173 351.214 103.57 349.534 103.57Z" fill="white"/>
<path d="M252.778 40.57V39.57H251.558L251.797 40.7664L252.778 40.57ZM261.108 40.57L262.095 40.4079L261.957 39.57H261.108V40.57ZM266.778 75.08L265.791 75.2421L266.4 78.9503L267.715 75.4298L266.778 75.08ZM278.538 43.58V42.58H277.844L277.601 43.2302L278.538 43.58ZM283.578 43.58L284.559 43.3868L284.4 42.58H283.578V43.58ZM289.808 75.22L288.827 75.4132L289.509 78.8769L290.745 75.5701L289.808 75.22ZM302.758 40.57V39.57H302.064L301.821 40.2199L302.758 40.57ZM311.158 40.57L312.085 40.9443L312.64 39.57H311.158V40.57ZM292.818 86V87H293.493L293.745 86.3743L292.818 86ZM284.978 86L283.998 86.2007L284.162 87H284.978V86ZM279.728 60.38L280.707 60.1793L280.031 56.8781L278.797 60.0139L279.728 60.38ZM269.648 86V87H270.329L270.578 86.3661L269.648 86ZM261.878 86L260.897 86.1964L261.058 87H261.878V86ZM252.778 40.57V41.57H261.108V40.57V39.57H252.778V40.57ZM261.108 40.57L260.121 40.7321L265.791 75.2421L266.778 75.08L267.765 74.9179L262.095 40.4079L261.108 40.57ZM266.778 75.08L267.715 75.4298L279.475 43.9298L278.538 43.58L277.601 43.2302L265.841 74.7302L266.778 75.08ZM278.538 43.58V44.58H283.578V43.58V42.58H278.538V43.58ZM283.578 43.58L282.597 43.7732L288.827 75.4132L289.808 75.22L290.789 75.0268L284.559 43.3868L283.578 43.58ZM289.808 75.22L290.745 75.5701L303.695 40.9201L302.758 40.57L301.821 40.2199L288.871 74.8699L289.808 75.22ZM302.758 40.57V41.57H311.158V40.57V39.57H302.758V40.57ZM311.158 40.57L310.231 40.1957L291.891 85.6257L292.818 86L293.745 86.3743L312.085 40.9443L311.158 40.57ZM292.818 86V85H284.978V86V87H292.818V86ZM284.978 86L285.957 85.7993L280.707 60.1793L279.728 60.38L278.748 60.5807L283.998 86.2007L284.978 86ZM279.728 60.38L278.797 60.0139L268.717 85.6339L269.648 86L270.578 86.3661L280.658 60.7461L279.728 60.38ZM269.648 86V85H261.878V86V87H269.648V86ZM261.878 86L262.858 85.8036L253.758 40.3736L252.778 40.57L251.797 40.7664L260.897 86.1964L261.878 86ZM314.824 85.475L314.302 86.3283L314.309 86.3325L314.316 86.3366L314.824 85.475ZM311.149 81.45L310.235 81.8561L310.238 81.8638L310.242 81.8715L311.149 81.45ZM310.309 76.06L311.304 76.1571L311.305 76.1457L310.309 76.06ZM312.339 70.6L311.555 69.9783V69.9783L312.339 70.6ZM317.029 67.275L317.385 68.2095L317.394 68.2057L317.029 67.275ZM328.054 66.505L327.867 67.4875L327.875 67.489L327.884 67.4905L328.054 66.505ZM332.009 67.45L331.713 68.4054L332.877 68.7651L333.003 67.5536L332.009 67.45ZM332.359 64.09L331.364 63.9828L331.364 63.9864L332.359 64.09ZM331.554 58.805L330.724 59.3637L330.732 59.3751L331.554 58.805ZM324.134 57.685L323.742 56.7646L323.734 56.7683L324.134 57.685ZM321.929 59.4L321.128 58.8L321.125 58.8041L321.929 59.4ZM320.949 62.06V63.06H321.844L321.942 62.1704L320.949 62.06ZM312.829 62.06L311.832 61.9718L311.736 63.06H312.829V62.06ZM315.209 55.69L314.443 55.0465V55.0465L315.209 55.69ZM320.389 52.19L320.714 53.1355L320.72 53.1334L320.389 52.19ZM337.224 54.36L336.505 55.0556L336.509 55.0594L337.224 54.36ZM339.779 64.37L340.774 64.4634L340.774 64.4629L339.779 64.37ZM337.749 86V87H338.659L338.744 86.0934L337.749 86ZM331.309 86L330.31 86.0605L330.367 87H331.309V86ZM331.169 81.38L332.167 81.3195L331.982 78.2758L330.328 80.8376L331.169 81.38ZM327.039 85.58L327.551 86.4387L327.56 86.433L327.039 85.58ZM327.284 79.665L327.785 80.53L327.792 80.5263L327.798 80.5225L327.284 79.665ZM330.154 76.83L331.001 77.3615L331.005 77.3541L330.154 76.83ZM331.519 72.7L332.513 72.8055L332.6 71.9823L331.808 71.7428L331.519 72.7ZM328.159 71.93L327.97 72.912L327.98 72.9141L327.991 72.9159L328.159 71.93ZM320.284 72.63L320.764 73.5073L320.77 73.5038L320.776 73.5003L320.284 72.63ZM318.219 76.06L317.222 75.9734L317.222 75.9817L317.221 75.99L318.219 76.06ZM319.479 79.385L318.79 80.1101L318.799 80.1191L319.479 79.385ZM321.229 86.98V85.98C318.788 85.98 316.841 85.5029 315.331 84.6134L314.824 85.475L314.316 86.3366C316.212 87.4538 318.535 87.98 321.229 87.98V86.98ZM314.824 85.475L315.345 84.6217C313.819 83.6895 312.736 82.4924 312.055 81.0285L311.149 81.45L310.242 81.8715C311.101 83.7209 312.468 85.2072 314.302 86.3283L314.824 85.475ZM311.149 81.45L312.062 81.0439C311.389 79.5291 311.133 77.9066 311.304 76.1571L310.309 76.06L309.313 75.9629C309.111 78.04 309.415 80.0109 310.235 81.8561L311.149 81.45ZM310.309 76.06L311.305 76.1457C311.477 74.1392 312.096 72.5143 313.122 71.2217L312.339 70.6L311.555 69.9783C310.248 71.6257 309.513 73.6408 309.312 75.9743L310.309 76.06ZM312.339 70.6L313.122 71.2217C314.164 69.9085 315.572 68.8999 317.384 68.2095L317.029 67.275L316.673 66.3405C314.565 67.1434 312.846 68.3515 311.555 69.9783L312.339 70.6ZM317.029 67.275L317.394 68.2057C319.216 67.4899 321.34 67.12 323.784 67.12V66.12V65.12C321.14 65.12 318.761 65.5201 316.663 66.3442L317.029 67.275ZM323.784 66.12V67.12C325.219 67.12 326.58 67.2434 327.867 67.4875L328.054 66.505L328.24 65.5225C326.82 65.2533 325.334 65.12 323.784 65.12V66.12ZM328.054 66.505L327.884 67.4905C329.195 67.7166 330.472 68.0217 331.713 68.4054L332.009 67.45L332.304 66.4946C330.978 66.0849 329.618 65.76 328.223 65.5195L328.054 66.505ZM332.009 67.45L333.003 67.5536L333.353 64.1936L332.359 64.09L331.364 63.9864L331.014 67.3464L332.009 67.45ZM332.359 64.09L333.353 64.1972C333.618 61.7354 333.375 59.6756 332.375 58.2349L331.554 58.805L330.732 59.3751C331.319 60.221 331.612 61.6846 331.364 63.9828L332.359 64.09ZM331.554 58.805L332.383 58.2464C331.35 56.7124 329.549 56.09 327.354 56.09V57.09V58.09C329.218 58.09 330.217 58.6109 330.724 59.3636L331.554 58.805ZM327.354 57.09V56.09C326.032 56.09 324.821 56.3062 323.742 56.7647L324.134 57.685L324.525 58.6053C325.312 58.2705 326.249 58.09 327.354 58.09V57.09ZM324.134 57.685L323.734 56.7683C322.676 57.2296 321.799 57.9061 321.129 58.8L321.929 59.4L322.729 60C323.178 59.4006 323.771 58.9338 324.533 58.6017L324.134 57.685ZM321.929 59.4L321.125 58.8041C320.466 59.6925 320.087 60.7544 319.955 61.9496L320.949 62.06L321.942 62.1704C322.043 61.2656 322.317 60.5542 322.732 59.9958L321.929 59.4ZM320.949 62.06V61.06H312.829V62.06V63.06H320.949V62.06ZM312.829 62.06L313.825 62.1482C314.045 59.6628 314.783 57.75 315.974 56.3335L315.209 55.69L314.443 55.0465C312.927 56.85 312.079 59.1839 311.832 61.9718L312.829 62.06ZM315.209 55.69L315.974 56.3335C317.204 54.87 318.775 53.8033 320.714 53.1355L320.389 52.19L320.063 51.2445C317.802 52.0234 315.92 53.29 314.443 55.0465L315.209 55.69ZM320.389 52.19L320.72 53.1334C322.725 52.4284 324.933 52.07 327.354 52.07V51.07V50.07C324.734 50.07 322.299 50.4583 320.057 51.2466L320.389 52.19ZM327.354 51.07V52.07C331.664 52.07 334.642 53.1313 336.505 55.0555L337.224 54.36L337.942 53.6644C335.558 51.202 331.956 50.07 327.354 50.07V51.07ZM337.224 54.36L336.509 55.0594C338.343 56.9334 339.189 59.9206 338.783 64.2771L339.779 64.37L340.774 64.4629C341.208 59.8128 340.351 56.1265 337.938 53.6606L337.224 54.36ZM339.779 64.37L338.783 64.2766L336.753 85.9066L337.749 86L338.744 86.0934L340.774 64.4634L339.779 64.37ZM337.749 86V85H331.309V86V87H337.749V86ZM331.309 86L332.307 85.9395C332.261 85.1896 332.239 84.4398 332.239 83.69H331.239H330.239C330.239 84.4802 330.262 85.2704 330.31 86.0605L331.309 86ZM331.239 83.69H332.239C332.239 82.8998 332.215 82.1096 332.167 81.3195L331.169 81.38L330.17 81.4405C330.216 82.1904 330.239 82.9402 330.239 83.69H331.239ZM331.169 81.38L330.328 80.8376C329.204 82.5794 327.929 83.8627 326.517 84.727L327.039 85.58L327.56 86.433C329.275 85.384 330.753 83.8672 332.009 81.9224L331.169 81.38ZM327.039 85.58L326.526 84.7214C325.154 85.5404 323.406 85.98 321.229 85.98V86.98V87.98C323.671 87.98 325.796 87.4863 327.551 86.4386L327.039 85.58ZM323.329 80.68V81.68C324.958 81.68 326.453 81.303 327.785 80.53L327.284 79.665L326.782 78.8C325.781 79.3804 324.639 79.68 323.329 79.68V80.68ZM327.284 79.665L327.798 80.5225C329.104 79.7388 330.173 78.6803 331.001 77.3615L330.154 76.83L329.306 76.2985C328.641 77.3597 327.796 78.1912 326.769 78.8075L327.284 79.665ZM330.154 76.83L331.005 77.3541C331.837 76.0028 332.335 74.4808 332.513 72.8055L331.519 72.7L330.524 72.5945C330.375 73.9992 329.964 75.2305 329.302 76.3059L330.154 76.83ZM331.519 72.7L331.808 71.7428C330.758 71.4253 329.596 71.1598 328.326 70.9441L328.159 71.93L327.991 72.9159C329.194 73.1202 330.273 73.3681 331.229 73.6572L331.519 72.7ZM328.159 71.93L328.347 70.948C327.079 70.7042 325.861 70.58 324.694 70.58V71.58V72.58C325.719 72.58 326.811 72.6892 327.97 72.912L328.159 71.93ZM324.694 71.58V70.58C322.852 70.58 321.205 70.9593 319.791 71.7597L320.284 72.63L320.776 73.5003C321.835 72.9007 323.129 72.58 324.694 72.58V71.58ZM320.284 72.63L319.803 71.7527C318.227 72.6156 317.386 74.0869 317.222 75.9734L318.219 76.06L319.215 76.1466C319.331 74.813 319.867 73.9977 320.764 73.5073L320.284 72.63ZM318.219 76.06L317.221 75.99C317.108 77.6056 317.631 79.0094 318.79 80.11L319.479 79.385L320.167 78.66C319.459 77.9873 319.143 77.1744 319.216 76.13L318.219 76.06ZM319.479 79.385L318.799 80.1191C319.966 81.1978 321.518 81.68 323.329 81.68V80.68V79.68C321.873 79.68 320.858 79.2989 320.158 78.6509L319.479 79.385ZM345.369 103.01L345.635 102.046L345.627 102.044L345.62 102.042L345.369 103.01ZM341.344 101.33L340.349 101.234L340.287 101.874L340.843 102.195L341.344 101.33ZM342.044 94.05L342.647 93.2521L341.22 92.1739L341.049 93.9543L342.044 94.05ZM351.074 95.45L350.493 94.6363L350.48 94.6457L350.467 94.6556L351.074 95.45ZM353.279 92.965L352.43 92.4367L352.425 92.4451L353.279 92.965ZM355.064 89.29L355.998 89.6479L355.998 89.6476L355.064 89.29ZM356.324 86L357.258 86.3577L357.374 86.0548L357.29 85.7416L356.324 86ZM347.224 51.98V50.98H345.922L346.258 52.2384L347.224 51.98ZM355.694 51.98L356.674 51.7785L356.509 50.98H355.694V51.98ZM360.734 76.48L359.755 76.6815L360.474 80.1804L361.676 76.8163L360.734 76.48ZM369.484 51.98V50.98H368.779L368.542 51.6437L369.484 51.98ZM377.044 51.98L377.976 52.3421L378.506 50.98H377.044V51.98ZM361.434 92.16L362.365 92.5244L362.366 92.5221L361.434 92.16ZM358.039 98.705L357.229 98.1195L357.223 98.127L358.039 98.705ZM354.154 102.38L353.672 101.504L353.661 101.51L354.154 102.38ZM349.534 103.57V102.57C348.199 102.57 346.901 102.395 345.635 102.046L345.369 103.01L345.103 103.974C346.544 104.372 348.022 104.57 349.534 104.57V103.57ZM345.369 103.01L345.62 102.042C344.362 101.717 343.104 101.194 341.845 100.465L341.344 101.33L340.843 102.195C342.244 103.006 343.669 103.603 345.119 103.978L345.369 103.01ZM341.344 101.33L342.34 101.426L343.04 94.1457L342.044 94.05L341.049 93.9543L340.349 101.234L341.344 101.33ZM342.044 94.05L341.441 94.8479C342.558 95.6919 343.698 96.3292 344.859 96.7422L345.194 95.8L345.529 94.8578C344.591 94.5242 343.63 93.9948 342.647 93.2521L342.044 94.05ZM345.194 95.8L344.859 96.7422C346.015 97.1532 347.202 97.36 348.414 97.36V96.36V95.36C347.434 95.36 346.473 95.1935 345.529 94.8578L345.194 95.8ZM348.414 96.36V97.36C349.618 97.36 350.718 96.9817 351.682 96.2444L351.074 95.45L350.467 94.6556C349.844 95.1317 349.17 95.36 348.414 95.36V96.36ZM351.074 95.45L351.655 96.2637C352.606 95.5848 353.427 94.6455 354.133 93.4849L353.279 92.965L352.425 92.4451C351.825 93.4311 351.176 94.1485 350.493 94.6363L351.074 95.45ZM353.279 92.965L354.128 93.4933C354.821 92.3794 355.443 91.0953 355.998 89.6479L355.064 89.29L354.13 88.9321C353.612 90.2847 353.044 91.4506 352.43 92.4367L353.279 92.965ZM355.064 89.29L355.998 89.6476L357.258 86.3577L356.324 86L355.39 85.6424L354.13 88.9324L355.064 89.29ZM356.324 86L357.29 85.7416L348.19 51.7216L347.224 51.98L346.258 52.2384L355.358 86.2584L356.324 86ZM347.224 51.98V52.98H355.694V51.98V50.98H347.224V51.98ZM355.694 51.98L354.715 52.1815L359.755 76.6815L360.734 76.48L361.714 76.2785L356.674 51.7785L355.694 51.98ZM360.734 76.48L361.676 76.8163L370.426 52.3163L369.484 51.98L368.542 51.6437L359.792 76.1437L360.734 76.48ZM369.484 51.98V52.98H377.044V51.98V50.98H369.484V51.98ZM377.044 51.98L376.112 51.6179L360.502 91.7979L361.434 92.16L362.366 92.5221L377.976 52.3421L377.044 51.98ZM361.434 92.16L360.503 91.7956C359.473 94.4285 358.378 96.5286 357.229 98.1195L358.039 98.705L358.85 99.2905C360.128 97.5214 361.296 95.2582 362.365 92.5244L361.434 92.16ZM358.039 98.705L357.223 98.127C356.096 99.718 354.907 100.825 353.672 101.504L354.154 102.38L354.636 103.256C356.201 102.395 357.602 101.052 358.855 99.283L358.039 98.705ZM354.154 102.38L353.661 101.51C352.418 102.214 351.049 102.57 349.534 102.57V103.57V104.57C351.379 104.57 353.09 104.132 354.647 103.25L354.154 102.38Z" fill="black" fill-opacity="0.4" mask="url(#path-1-outside-1_4_74)"/>
<path d="M106.248 75C106.248 33.5786 139.826 0 181.248 0C222.669 0 256.248 33.5786 256.248 75C256.248 116.421 222.669 150 181.248 150C139.826 150 106.248 116.421 106.248 75Z" fill="url(#paint0_linear_4_74)"/>
<path d="M181.248 0.5C222.393 0.5 255.748 33.8548 255.748 75C255.748 116.145 222.393 149.5 181.248 149.5C140.103 149.5 106.748 116.145 106.748 75C106.748 33.8548 140.103 0.5 181.248 0.5Z" stroke="white" stroke-opacity="0.3"/>
<mask id="path-5-outside-2_4_74" maskUnits="userSpaceOnUse" x="-0.752197" y="44" width="149" height="48" fill="black">
<rect fill="white" x="-0.752197" y="44" width="149" height="48"/>
<path d="M1.09851 91L5.36851 45.57H12.7885L10.9685 64.54H28.8185L30.6385 45.57H38.0585L33.7885 91H26.3685L28.1185 71.75H10.2685L8.51851 91H1.09851ZM41.0521 91L59.2521 45.57H68.5621L77.7321 91H69.8221L67.8621 81.2H52.7421L48.8921 91H41.0521ZM55.1921 74.97H66.6721L62.8221 55.37L55.1921 74.97ZM84.9755 91L89.2455 45.57H96.6655L93.0255 83.79H109.825L109.195 91H84.9755ZM116.147 91L120.417 45.57H146.177L145.477 52.71H127.137L126.017 64.68H142.747L142.047 71.75H125.317L123.567 91H116.147Z"/>
</mask>
<path d="M1.09851 91L5.36851 45.57H12.7885L10.9685 64.54H28.8185L30.6385 45.57H38.0585L33.7885 91H26.3685L28.1185 71.75H10.2685L8.51851 91H1.09851ZM41.0521 91L59.2521 45.57H68.5621L77.7321 91H69.8221L67.8621 81.2H52.7421L48.8921 91H41.0521ZM55.1921 74.97H66.6721L62.8221 55.37L55.1921 74.97ZM84.9755 91L89.2455 45.57H96.6655L93.0255 83.79H109.825L109.195 91H84.9755ZM116.147 91L120.417 45.57H146.177L145.477 52.71H127.137L126.017 64.68H142.747L142.047 71.75H125.317L123.567 91H116.147Z" fill="white"/>
<path d="M1.09851 91L0.102894 90.9064L0.000108719 92H1.09851V91ZM5.36851 45.57V44.57H4.45809L4.37289 45.4764L5.36851 45.57ZM12.7885 45.57L13.7839 45.6655L13.889 44.57H12.7885V45.57ZM10.9685 64.54L9.97308 64.4445L9.86797 65.54H10.9685V64.54ZM28.8185 64.54V65.54H29.7272L29.8139 64.6355L28.8185 64.54ZM30.6385 45.57V44.57H29.7299L29.6431 45.4745L30.6385 45.57ZM38.0585 45.57L39.0541 45.6636L39.1569 44.57H38.0585V45.57ZM33.7885 91V92H34.6989L34.7841 91.0936L33.7885 91ZM26.3685 91L25.3726 90.9095L25.2735 92H26.3685V91ZM28.1185 71.75L29.1144 71.8405L29.2135 70.75H28.1185V71.75ZM10.2685 71.75V70.75H9.35529L9.27261 71.6595L10.2685 71.75ZM8.51851 91V92H9.43172L9.5144 91.0905L8.51851 91ZM1.09851 91L2.09412 91.0936L6.36412 45.6636L5.36851 45.57L4.37289 45.4764L0.102894 90.9064L1.09851 91ZM5.36851 45.57V46.57H12.7885V45.57V44.57H5.36851V45.57ZM12.7885 45.57L11.7931 45.4745L9.97308 64.4445L10.9685 64.54L11.9639 64.6355L13.7839 45.6655L12.7885 45.57ZM10.9685 64.54V65.54H28.8185V64.54V63.54H10.9685V64.54ZM28.8185 64.54L29.8139 64.6355L31.6339 45.6655L30.6385 45.57L29.6431 45.4745L27.8231 64.4445L28.8185 64.54ZM30.6385 45.57V46.57H38.0585V45.57V44.57H30.6385V45.57ZM38.0585 45.57L37.0629 45.4764L32.7929 90.9064L33.7885 91L34.7841 91.0936L39.0541 45.6636L38.0585 45.57ZM33.7885 91V90H26.3685V91V92H33.7885V91ZM26.3685 91L27.3644 91.0905L29.1144 71.8405L28.1185 71.75L27.1226 71.6595L25.3726 90.9095L26.3685 91ZM28.1185 71.75V70.75H10.2685V71.75V72.75H28.1185V71.75ZM10.2685 71.75L9.27261 71.6595L7.52261 90.9095L8.51851 91L9.5144 91.0905L11.2644 71.8405L10.2685 71.75ZM8.51851 91V90H1.09851V91V92H8.51851V91ZM41.0521 91L40.1238 90.6281L39.5742 92H41.0521V91ZM59.2521 45.57V44.57H58.5755L58.3238 45.1981L59.2521 45.57ZM68.5621 45.57L69.5423 45.3721L69.3804 44.57H68.5621V45.57ZM77.7321 91V92H78.9541L78.7123 90.8021L77.7321 91ZM69.8221 91L68.8415 91.1961L69.0023 92H69.8221V91ZM67.8621 81.2L68.8427 81.0039L68.6819 80.2H67.8621V81.2ZM52.7421 81.2V80.2H52.0606L51.8113 80.8343L52.7421 81.2ZM48.8921 91V92H49.5736L49.8229 91.3657L48.8921 91ZM55.1921 74.97L54.2602 74.6072L53.7297 75.97H55.1921V74.97ZM66.6721 74.97V75.97H67.8876L67.6534 74.7773L66.6721 74.97ZM62.8221 55.37L63.8034 55.1773L63.1396 51.7979L61.8902 55.0072L62.8221 55.37ZM41.0521 91L41.9804 91.3719L60.1804 45.9419L59.2521 45.57L58.3238 45.1981L40.1238 90.6281L41.0521 91ZM59.2521 45.57V46.57H68.5621V45.57V44.57H59.2521V45.57ZM68.5621 45.57L67.5819 45.7679L76.7519 91.1979L77.7321 91L78.7123 90.8021L69.5423 45.3721L68.5621 45.57ZM77.7321 91V90H69.8221V91V92H77.7321V91ZM69.8221 91L70.8027 90.8039L68.8427 81.0039L67.8621 81.2L66.8815 81.3961L68.8415 91.1961L69.8221 91ZM67.8621 81.2V80.2H52.7421V81.2V82.2H67.8621V81.2ZM52.7421 81.2L51.8113 80.8343L47.9613 90.6343L48.8921 91L49.8229 91.3657L53.6729 81.5657L52.7421 81.2ZM48.8921 91V90H41.0521V91V92H48.8921V91ZM55.1921 74.97V75.97H66.6721V74.97V73.97H55.1921V74.97ZM66.6721 74.97L67.6534 74.7773L63.8034 55.1773L62.8221 55.37L61.8409 55.5627L65.6908 75.1627L66.6721 74.97ZM62.8221 55.37L61.8902 55.0072L54.2602 74.6072L55.1921 74.97L56.124 75.3328L63.754 55.7328L62.8221 55.37ZM84.9755 91L83.9799 90.9064L83.8771 92H84.9755V91ZM89.2455 45.57V44.57H88.335L88.2498 45.4764L89.2455 45.57ZM96.6655 45.57L97.661 45.6648L97.7652 44.57H96.6655V45.57ZM93.0255 83.79L92.03 83.6952L91.9257 84.79H93.0255V83.79ZM109.825 83.79L110.822 83.877L110.917 82.79H109.825V83.79ZM109.195 91V92H110.112L110.192 91.087L109.195 91ZM84.9755 91L85.9711 91.0936L90.2411 45.6636L89.2455 45.57L88.2498 45.4764L83.9799 90.9064L84.9755 91ZM89.2455 45.57V46.57H96.6655V45.57V44.57H89.2455V45.57ZM96.6655 45.57L95.67 45.4752L92.03 83.6952L93.0255 83.79L94.021 83.8848L97.661 45.6648L96.6655 45.57ZM93.0255 83.79V84.79H109.825V83.79V82.79H93.0255V83.79ZM109.825 83.79L108.829 83.703L108.199 90.913L109.195 91L110.192 91.087L110.822 83.877L109.825 83.79ZM109.195 91V90H84.9755V91V92H109.195V91ZM116.147 91L115.152 90.9064L115.049 92H116.147V91ZM120.417 45.57V44.57H119.507L119.422 45.4764L120.417 45.57ZM146.177 45.57L147.173 45.6676L147.28 44.57H146.177V45.57ZM145.477 52.71V53.71H146.384L146.473 52.8076L145.477 52.71ZM127.137 52.71V51.71H126.227L126.142 52.6168L127.137 52.71ZM126.017 64.68L125.022 64.5868L124.919 65.68H126.017V64.68ZM142.747 64.68L143.742 64.7785L143.851 63.68H142.747V64.68ZM142.047 71.75V72.75H142.953L143.042 71.8485L142.047 71.75ZM125.317 71.75V70.75H124.404L124.321 71.6595L125.317 71.75ZM123.567 91V92H124.481L124.563 91.0905L123.567 91ZM116.147 91L117.143 91.0936L121.413 45.6636L120.417 45.57L119.422 45.4764L115.152 90.9064L116.147 91ZM120.417 45.57V46.57H146.177V45.57V44.57H120.417V45.57ZM146.177 45.57L145.182 45.4724L144.482 52.6124L145.477 52.71L146.473 52.8076L147.173 45.6676L146.177 45.57ZM145.477 52.71V51.71H127.137V52.71V53.71H145.477V52.71ZM127.137 52.71L126.142 52.6168L125.022 64.5868L126.017 64.68L127.013 64.7732L128.133 52.8032L127.137 52.71ZM126.017 64.68V65.68H142.747V64.68V63.68H126.017V64.68ZM142.747 64.68L141.752 64.5815L141.052 71.6515L142.047 71.75L143.042 71.8485L143.742 64.7785L142.747 64.68ZM142.047 71.75V70.75H125.317V71.75V72.75H142.047V71.75ZM125.317 71.75L124.321 71.6595L122.571 90.9095L123.567 91L124.563 91.0905L126.313 71.8405L125.317 71.75ZM123.567 91V90H116.147V91V92H123.567V91Z" fill="black" fill-opacity="0.4" mask="url(#path-5-outside-2_4_74)"/>
<path d="M239.248 69V65C239.248 62.8783 238.405 60.8434 236.905 59.3431C235.404 57.8429 233.37 57 231.248 57H215.248C213.126 57 211.091 57.8429 209.591 59.3431C208.091 60.8434 207.248 62.8783 207.248 65V69M231.248 41C231.248 45.4183 227.666 49 223.248 49C218.83 49 215.248 45.4183 215.248 41C215.248 36.5817 218.83 33 223.248 33C227.666 33 231.248 36.5817 231.248 41Z" stroke="#1E1E1E" stroke-width="4" stroke-linecap="round" stroke-linejoin="round"/>
<path d="M162.248 122V118C162.248 115.878 161.405 113.843 159.905 112.343C158.404 110.843 156.37 110 154.248 110H138.248C136.126 110 134.091 110.843 132.591 112.343C131.091 113.843 130.248 115.878 130.248 118V122M154.248 94C154.248 98.4183 150.666 102 146.248 102C141.83 102 138.248 98.4183 138.248 94C138.248 89.5817 141.83 86 146.248 86C150.666 86 154.248 89.5817 154.248 94Z" stroke="#1E1E1E" stroke-width="4" stroke-linecap="round" stroke-linejoin="round"/>
<path d="M197.248 71C197.248 85 179.248 97 179.248 97C179.248 97 161.248 85 161.248 71C161.248 66.2261 163.144 61.6477 166.52 58.2721C169.896 54.8964 174.474 53 179.248 53C184.022 53 188.6 54.8964 191.976 58.2721C195.351 61.6477 197.248 66.2261 197.248 71Z" stroke="#1E1E1E" stroke-width="4" stroke-linecap="round" stroke-linejoin="round"/>
<path d="M179.248 77C182.562 77 185.248 74.3137 185.248 71C185.248 67.6863 182.562 65 179.248 65C175.934 65 173.248 67.6863 173.248 71C173.248 74.3137 175.934 77 179.248 77Z" stroke="#1E1E1E" stroke-width="4" stroke-linecap="round" stroke-linejoin="round"/>
<mask id="path-10-outside-3_4_74" maskUnits="userSpaceOnUse" x="251.248" y="39" width="128" height="66" fill="black">
<rect fill="white" x="251.248" y="39" width="128" height="66"/>
<path d="M252.778 40.57H261.108L266.778 75.08L278.538 43.58H283.578L289.808 75.22L302.758 40.57H311.158L292.818 86H284.978L279.728 60.38L269.648 86H261.878L252.778 40.57ZM321.229 86.98C318.662 86.98 316.527 86.4783 314.824 85.475C313.144 84.4483 311.919 83.1067 311.149 81.45C310.402 79.77 310.122 77.9733 310.309 76.06C310.495 73.89 311.172 72.07 312.339 70.6C313.505 69.13 315.069 68.0217 317.029 67.275C318.989 66.505 321.24 66.12 323.784 66.12C325.277 66.12 326.7 66.2483 328.054 66.505C329.407 66.7383 330.725 67.0533 332.009 67.45L332.359 64.09C332.615 61.71 332.347 59.9483 331.554 58.805C330.784 57.6617 329.384 57.09 327.354 57.09C326.14 57.09 325.067 57.2883 324.134 57.685C323.224 58.0817 322.489 58.6533 321.929 59.4C321.392 60.1233 321.065 61.01 320.949 62.06H312.829C313.062 59.4233 313.855 57.3 315.209 55.69C316.562 54.08 318.289 52.9133 320.389 52.19C322.512 51.4433 324.834 51.07 327.354 51.07C331.81 51.07 335.1 52.1667 337.224 54.36C339.347 56.53 340.199 59.8667 339.779 64.37L337.749 86H331.309C331.262 85.23 331.239 84.46 331.239 83.69C331.239 82.92 331.215 82.15 331.169 81.38C329.979 83.2233 328.602 84.6233 327.039 85.58C325.475 86.5133 323.539 86.98 321.229 86.98ZM323.329 80.68C324.799 80.68 326.117 80.3417 327.284 79.665C328.45 78.965 329.407 78.02 330.154 76.83C330.9 75.6167 331.355 74.24 331.519 72.7C330.515 72.3967 329.395 72.14 328.159 71.93C326.945 71.6967 325.79 71.58 324.694 71.58C322.99 71.58 321.52 71.93 320.284 72.63C319.047 73.3067 318.359 74.45 318.219 76.06C318.125 77.39 318.545 78.4983 319.479 79.385C320.412 80.2483 321.695 80.68 323.329 80.68ZM349.534 103.57C348.111 103.57 346.723 103.383 345.369 103.01C344.016 102.66 342.674 102.1 341.344 101.33L342.044 94.05C343.094 94.8433 344.144 95.4267 345.194 95.8C346.244 96.1733 347.318 96.36 348.414 96.36C349.394 96.36 350.281 96.0567 351.074 95.45C351.891 94.8667 352.626 94.0383 353.279 92.965C353.933 91.915 354.528 90.69 355.064 89.29L356.324 86L347.224 51.98H355.694L360.734 76.48L369.484 51.98H377.044L361.434 92.16C360.384 94.8433 359.253 97.025 358.039 98.705C356.849 100.385 355.554 101.61 354.154 102.38C352.754 103.173 351.214 103.57 349.534 103.57Z"/>
</mask>
<path d="M252.778 40.57H261.108L266.778 75.08L278.538 43.58H283.578L289.808 75.22L302.758 40.57H311.158L292.818 86H284.978L279.728 60.38L269.648 86H261.878L252.778 40.57ZM321.229 86.98C318.662 86.98 316.527 86.4783 314.824 85.475C313.144 84.4483 311.919 83.1067 311.149 81.45C310.402 79.77 310.122 77.9733 310.309 76.06C310.495 73.89 311.172 72.07 312.339 70.6C313.505 69.13 315.069 68.0217 317.029 67.275C318.989 66.505 321.24 66.12 323.784 66.12C325.277 66.12 326.7 66.2483 328.054 66.505C329.407 66.7383 330.725 67.0533 332.009 67.45L332.359 64.09C332.615 61.71 332.347 59.9483 331.554 58.805C330.784 57.6617 329.384 57.09 327.354 57.09C326.14 57.09 325.067 57.2883 324.134 57.685C323.224 58.0817 322.489 58.6533 321.929 59.4C321.392 60.1233 321.065 61.01 320.949 62.06H312.829C313.062 59.4233 313.855 57.3 315.209 55.69C316.562 54.08 318.289 52.9133 320.389 52.19C322.512 51.4433 324.834 51.07 327.354 51.07C331.81 51.07 335.1 52.1667 337.224 54.36C339.347 56.53 340.199 59.8667 339.779 64.37L337.749 86H331.309C331.262 85.23 331.239 84.46 331.239 83.69C331.239 82.92 331.215 82.15 331.169 81.38C329.979 83.2233 328.602 84.6233 327.039 85.58C325.475 86.5133 323.539 86.98 321.229 86.98ZM323.329 80.68C324.799 80.68 326.117 80.3417 327.284 79.665C328.45 78.965 329.407 78.02 330.154 76.83C330.9 75.6167 331.355 74.24 331.519 72.7C330.515 72.3967 329.395 72.14 328.159 71.93C326.945 71.6967 325.79 71.58 324.694 71.58C322.99 71.58 321.52 71.93 320.284 72.63C319.047 73.3067 318.359 74.45 318.219 76.06C318.125 77.39 318.545 78.4983 319.479 79.385C320.412 80.2483 321.695 80.68 323.329 80.68ZM349.534 103.57C348.111 103.57 346.723 103.383 345.369 103.01C344.016 102.66 342.674 102.1 341.344 101.33L342.044 94.05C343.094 94.8433 344.144 95.4267 345.194 95.8C346.244 96.1733 347.318 96.36 348.414 96.36C349.394 96.36 350.281 96.0567 351.074 95.45C351.891 94.8667 352.626 94.0383 353.279 92.965C353.933 91.915 354.528 90.69 355.064 89.29L356.324 86L347.224 51.98H355.694L360.734 76.48L369.484 51.98H377.044L361.434 92.16C360.384 94.8433 359.253 97.025 358.039 98.705C356.849 100.385 355.554 101.61 354.154 102.38C352.754 103.173 351.214 103.57 349.534 103.57Z" fill="white"/>
<path d="M252.778 40.57V39.57H251.558L251.797 40.7664L252.778 40.57ZM261.108 40.57L262.095 40.4079L261.957 39.57H261.108V40.57ZM266.778 75.08L265.791 75.2421L266.4 78.9503L267.715 75.4298L266.778 75.08ZM278.538 43.58V42.58H277.844L277.601 43.2302L278.538 43.58ZM283.578 43.58L284.559 43.3868L284.4 42.58H283.578V43.58ZM289.808 75.22L288.827 75.4132L289.509 78.8769L290.745 75.5701L289.808 75.22ZM302.758 40.57V39.57H302.064L301.821 40.2199L302.758 40.57ZM311.158 40.57L312.085 40.9443L312.64 39.57H311.158V40.57ZM292.818 86V87H293.493L293.745 86.3743L292.818 86ZM284.978 86L283.998 86.2007L284.162 87H284.978V86ZM279.728 60.38L280.707 60.1793L280.031 56.8781L278.797 60.0139L279.728 60.38ZM269.648 86V87H270.329L270.578 86.3661L269.648 86ZM261.878 86L260.897 86.1964L261.058 87H261.878V86ZM252.778 40.57V41.57H261.108V40.57V39.57H252.778V40.57ZM261.108 40.57L260.121 40.7321L265.791 75.2421L266.778 75.08L267.765 74.9179L262.095 40.4079L261.108 40.57ZM266.778 75.08L267.715 75.4298L279.475 43.9298L278.538 43.58L277.601 43.2302L265.841 74.7302L266.778 75.08ZM278.538 43.58V44.58H283.578V43.58V42.58H278.538V43.58ZM283.578 43.58L282.597 43.7732L288.827 75.4132L289.808 75.22L290.789 75.0268L284.559 43.3868L283.578 43.58ZM289.808 75.22L290.745 75.5701L303.695 40.9201L302.758 40.57L301.821 40.2199L288.871 74.8699L289.808 75.22ZM302.758 40.57V41.57H311.158V40.57V39.57H302.758V40.57ZM311.158 40.57L310.231 40.1957L291.891 85.6257L292.818 86L293.745 86.3743L312.085 40.9443L311.158 40.57ZM292.818 86V85H284.978V86V87H292.818V86ZM284.978 86L285.957 85.7993L280.707 60.1793L279.728 60.38L278.748 60.5807L283.998 86.2007L284.978 86ZM279.728 60.38L278.797 60.0139L268.717 85.6339L269.648 86L270.578 86.3661L280.658 60.7461L279.728 60.38ZM269.648 86V85H261.878V86V87H269.648V86ZM261.878 86L262.858 85.8036L253.758 40.3736L252.778 40.57L251.797 40.7664L260.897 86.1964L261.878 86ZM314.824 85.475L314.302 86.3283L314.309 86.3325L314.316 86.3366L314.824 85.475ZM311.149 81.45L310.235 81.8561L310.238 81.8638L310.242 81.8715L311.149 81.45ZM310.309 76.06L311.304 76.1571L311.305 76.1457L310.309 76.06ZM312.339 70.6L311.555 69.9783V69.9783L312.339 70.6ZM317.029 67.275L317.385 68.2095L317.394 68.2057L317.029 67.275ZM328.054 66.505L327.867 67.4875L327.875 67.489L327.884 67.4905L328.054 66.505ZM332.009 67.45L331.713 68.4054L332.877 68.7651L333.003 67.5536L332.009 67.45ZM332.359 64.09L331.364 63.9828L331.364 63.9864L332.359 64.09ZM331.554 58.805L330.724 59.3637L330.732 59.3751L331.554 58.805ZM324.134 57.685L323.742 56.7646L323.734 56.7683L324.134 57.685ZM321.929 59.4L321.128 58.8L321.125 58.8041L321.929 59.4ZM320.949 62.06V63.06H321.844L321.942 62.1704L320.949 62.06ZM312.829 62.06L311.832 61.9718L311.736 63.06H312.829V62.06ZM315.209 55.69L314.443 55.0465V55.0465L315.209 55.69ZM320.389 52.19L320.714 53.1355L320.72 53.1334L320.389 52.19ZM337.224 54.36L336.505 55.0556L336.509 55.0594L337.224 54.36ZM339.779 64.37L340.774 64.4634L340.774 64.4629L339.779 64.37ZM337.749 86V87H338.659L338.744 86.0934L337.749 86ZM331.309 86L330.31 86.0605L330.367 87H331.309V86ZM331.169 81.38L332.167 81.3195L331.982 78.2758L330.328 80.8376L331.169 81.38ZM327.039 85.58L327.551 86.4387L327.56 86.433L327.039 85.58ZM327.284 79.665L327.785 80.53L327.792 80.5263L327.798 80.5225L327.284 79.665ZM330.154 76.83L331.001 77.3615L331.005 77.3541L330.154 76.83ZM331.519 72.7L332.513 72.8055L332.6 71.9823L331.808 71.7428L331.519 72.7ZM328.159 71.93L327.97 72.912L327.98 72.9141L327.991 72.9159L328.159 71.93ZM320.284 72.63L320.764 73.5073L320.77 73.5038L320.776 73.5003L320.284 72.63ZM318.219 76.06L317.222 75.9734L317.222 75.9817L317.221 75.99L318.219 76.06ZM319.479 79.385L318.79 80.1101L318.799 80.1191L319.479 79.385ZM321.229 86.98V85.98C318.788 85.98 316.841 85.5029 315.331 84.6134L314.824 85.475L314.316 86.3366C316.212 87.4538 318.535 87.98 321.229 87.98V86.98ZM314.824 85.475L315.345 84.6217C313.819 83.6895 312.736 82.4924 312.055 81.0285L311.149 81.45L310.242 81.8715C311.101 83.7209 312.468 85.2072 314.302 86.3283L314.824 85.475ZM311.149 81.45L312.062 81.0439C311.389 79.5291 311.133 77.9066 311.304 76.1571L310.309 76.06L309.313 75.9629C309.111 78.04 309.415 80.0109 310.235 81.8561L311.149 81.45ZM310.309 76.06L311.305 76.1457C311.477 74.1392 312.096 72.5143 313.122 71.2217L312.339 70.6L311.555 69.9783C310.248 71.6257 309.513 73.6408 309.312 75.9743L310.309 76.06ZM312.339 70.6L313.122 71.2217C314.164 69.9085 315.572 68.8999 317.384 68.2095L317.029 67.275L316.673 66.3405C314.565 67.1434 312.846 68.3515 311.555 69.9783L312.339 70.6ZM317.029 67.275L317.394 68.2057C319.216 67.4899 321.34 67.12 323.784 67.12V66.12V65.12C321.14 65.12 318.761 65.5201 316.663 66.3442L317.029 67.275ZM323.784 66.12V67.12C325.219 67.12 326.58 67.2434 327.867 67.4875L328.054 66.505L328.24 65.5225C326.82 65.2533 325.334 65.12 323.784 65.12V66.12ZM328.054 66.505L327.884 67.4905C329.195 67.7166 330.472 68.0217 331.713 68.4054L332.009 67.45L332.304 66.4946C330.978 66.0849 329.618 65.76 328.223 65.5195L328.054 66.505ZM332.009 67.45L333.003 67.5536L333.353 64.1936L332.359 64.09L331.364 63.9864L331.014 67.3464L332.009 67.45ZM332.359 64.09L333.353 64.1972C333.618 61.7354 333.375 59.6756 332.375 58.2349L331.554 58.805L330.732 59.3751C331.319 60.221 331.612 61.6846 331.364 63.9828L332.359 64.09ZM331.554 58.805L332.383 58.2464C331.35 56.7124 329.549 56.09 327.354 56.09V57.09V58.09C329.218 58.09 330.217 58.6109 330.724 59.3636L331.554 58.805ZM327.354 57.09V56.09C326.032 56.09 324.821 56.3062 323.742 56.7647L324.134 57.685L324.525 58.6053C325.312 58.2705 326.249 58.09 327.354 58.09V57.09ZM324.134 57.685L323.734 56.7683C322.676 57.2296 321.799 57.9061 321.129 58.8L321.929 59.4L322.729 60C323.178 59.4006 323.771 58.9338 324.533 58.6017L324.134 57.685ZM321.929 59.4L321.125 58.8041C320.466 59.6925 320.087 60.7544 319.955 61.9496L320.949 62.06L321.942 62.1704C322.043 61.2656 322.317 60.5542 322.732 59.9958L321.929 59.4ZM320.949 62.06V61.06H312.829V62.06V63.06H320.949V62.06ZM312.829 62.06L313.825 62.1482C314.045 59.6628 314.783 57.75 315.974 56.3335L315.209 55.69L314.443 55.0465C312.927 56.85 312.079 59.1839 311.832 61.9718L312.829 62.06ZM315.209 55.69L315.974 56.3335C317.204 54.87 318.775 53.8033 320.714 53.1355L320.389 52.19L320.063 51.2445C317.802 52.0234 315.92 53.29 314.443 55.0465L315.209 55.69ZM320.389 52.19L320.72 53.1334C322.725 52.4284 324.933 52.07 327.354 52.07V51.07V50.07C324.734 50.07 322.299 50.4583 320.057 51.2466L320.389 52.19ZM327.354 51.07V52.07C331.664 52.07 334.642 53.1313 336.505 55.0555L337.224 54.36L337.942 53.6644C335.558 51.202 331.956 50.07 327.354 50.07V51.07ZM337.224 54.36L336.509 55.0594C338.343 56.9334 339.189 59.9206 338.783 64.2771L339.779 64.37L340.774 64.4629C341.208 59.8128 340.351 56.1265 337.938 53.6606L337.224 54.36ZM339.779 64.37L338.783 64.2766L336.753 85.9066L337.749 86L338.744 86.0934L340.774 64.4634L339.779 64.37ZM337.749 86V85H331.309V86V87H337.749V86ZM331.309 86L332.307 85.9395C332.261 85.1896 332.239 84.4398 332.239 83.69H331.239H330.239C330.239 84.4802 330.262 85.2704 330.31 86.0605L331.309 86ZM331.239 83.69H332.239C332.239 82.8998 332.215 82.1096 332.167 81.3195L331.169 81.38L330.17 81.4405C330.216 82.1904 330.239 82.9402 330.239 83.69H331.239ZM331.169 81.38L330.328 80.8376C329.204 82.5794 327.929 83.8627 326.517 84.727L327.039 85.58L327.56 86.433C329.275 85.384 330.753 83.8672 332.009 81.9224L331.169 81.38ZM327.039 85.58L326.526 84.7214C325.154 85.5404 323.406 85.98 321.229 85.98V86.98V87.98C323.671 87.98 325.796 87.4863 327.551 86.4386L327.039 85.58ZM323.329 80.68V81.68C324.958 81.68 326.453 81.303 327.785 80.53L327.284 79.665L326.782 78.8C325.781 79.3804 324.639 79.68 323.329 79.68V80.68ZM327.284 79.665L327.798 80.5225C329.104 79.7388 330.173 78.6803 331.001 77.3615L330.154 76.83L329.306 76.2985C328.641 77.3597 327.796 78.1912 326.769 78.8075L327.284 79.665ZM330.154 76.83L331.005 77.3541C331.837 76.0028 332.335 74.4808 332.513 72.8055L331.519 72.7L330.524 72.5945C330.375 73.9992 329.964 75.2305 329.302 76.3059L330.154 76.83ZM331.519 72.7L331.808 71.7428C330.758 71.4253 329.596 71.1598 328.326 70.9441L328.159 71.93L327.991 72.9159C329.194 73.1202 330.273 73.3681 331.229 73.6572L331.519 72.7ZM328.159 71.93L328.347 70.948C327.079 70.7042 325.861 70.58 324.694 70.58V71.58V72.58C325.719 72.58 326.811 72.6892 327.97 72.912L328.159 71.93ZM324.694 71.58V70.58C322.852 70.58 321.205 70.9593 319.791 71.7597L320.284 72.63L320.776 73.5003C321.835 72.9007 323.129 72.58 324.694 72.58V71.58ZM320.284 72.63L319.803 71.7527C318.227 72.6156 317.386 74.0869 317.222 75.9734L318.219 76.06L319.215 76.1466C319.331 74.813 319.867 73.9977 320.764 73.5073L320.284 72.63ZM318.219 76.06L317.221 75.99C317.108 77.6056 317.631 79.0094 318.79 80.11L319.479 79.385L320.167 78.66C319.459 77.9873 319.143 77.1744 319.216 76.13L318.219 76.06ZM319.479 79.385L318.799 80.1191C319.966 81.1978 321.518 81.68 323.329 81.68V80.68V79.68C321.873 79.68 320.858 79.2989 320.158 78.6509L319.479 79.385ZM345.369 103.01L345.635 102.046L345.627 102.044L345.62 102.042L345.369 103.01ZM341.344 101.33L340.349 101.234L340.287 101.874L340.843 102.195L341.344 101.33ZM342.044 94.05L342.647 93.2521L341.22 92.1739L341.049 93.9543L342.044 94.05ZM351.074 95.45L350.493 94.6363L350.48 94.6457L350.467 94.6556L351.074 95.45ZM353.279 92.965L352.43 92.4367L352.425 92.4451L353.279 92.965ZM355.064 89.29L355.998 89.6479L355.998 89.6476L355.064 89.29ZM356.324 86L357.258 86.3577L357.374 86.0548L357.29 85.7416L356.324 86ZM347.224 51.98V50.98H345.922L346.258 52.2384L347.224 51.98ZM355.694 51.98L356.674 51.7785L356.509 50.98H355.694V51.98ZM360.734 76.48L359.755 76.6815L360.474 80.1804L361.676 76.8163L360.734 76.48ZM369.484 51.98V50.98H368.779L368.542 51.6437L369.484 51.98ZM377.044 51.98L377.976 52.3421L378.506 50.98H377.044V51.98ZM361.434 92.16L362.365 92.5244L362.366 92.5221L361.434 92.16ZM358.039 98.705L357.229 98.1195L357.223 98.127L358.039 98.705ZM354.154 102.38L353.672 101.504L353.661 101.51L354.154 102.38ZM349.534 103.57V102.57C348.199 102.57 346.901 102.395 345.635 102.046L345.369 103.01L345.103 103.974C346.544 104.372 348.022 104.57 349.534 104.57V103.57ZM345.369 103.01L345.62 102.042C344.362 101.717 343.104 101.194 341.845 100.465L341.344 101.33L340.843 102.195C342.244 103.006 343.669 103.603 345.119 103.978L345.369 103.01ZM341.344 101.33L342.34 101.426L343.04 94.1457L342.044 94.05L341.049 93.9543L340.349 101.234L341.344 101.33ZM342.044 94.05L341.441 94.8479C342.558 95.6919 343.698 96.3292 344.859 96.7422L345.194 95.8L345.529 94.8578C344.591 94.5242 343.63 93.9948 342.647 93.2521L342.044 94.05ZM345.194 95.8L344.859 96.7422C346.015 97.1532 347.202 97.36 348.414 97.36V96.36V95.36C347.434 95.36 346.473 95.1935 345.529 94.8578L345.194 95.8ZM348.414 96.36V97.36C349.618 97.36 350.718 96.9817 351.682 96.2444L351.074 95.45L350.467 94.6556C349.844 95.1317 349.17 95.36 348.414 95.36V96.36ZM351.074 95.45L351.655 96.2637C352.606 95.5848 353.427 94.6455 354.133 93.4849L353.279 92.965L352.425 92.4451C351.825 93.4311 351.176 94.1485 350.493 94.6363L351.074 95.45ZM353.279 92.965L354.128 93.4933C354.821 92.3794 355.443 91.0953 355.998 89.6479L355.064 89.29L354.13 88.9321C353.612 90.2847 353.044 91.4506 352.43 92.4367L353.279 92.965ZM355.064 89.29L355.998 89.6476L357.258 86.3577L356.324 86L355.39 85.6424L354.13 88.9324L355.064 89.29ZM356.324 86L357.29 85.7416L348.19 51.7216L347.224 51.98L346.258 52.2384L355.358 86.2584L356.324 86ZM347.224 51.98V52.98H355.694V51.98V50.98H347.224V51.98ZM355.694 51.98L354.715 52.1815L359.755 76.6815L360.734 76.48L361.714 76.2785L356.674 51.7785L355.694 51.98ZM360.734 76.48L361.676 76.8163L370.426 52.3163L369.484 51.98L368.542 51.6437L359.792 76.1437L360.734 76.48ZM369.484 51.98V52.98H377.044V51.98V50.98H369.484V51.98ZM377.044 51.98L376.112 51.6179L360.502 91.7979L361.434 92.16L362.366 92.5221L377.976 52.3421L377.044 51.98ZM361.434 92.16L360.503 91.7956C359.473 94.4285 358.378 96.5286 357.229 98.1195L358.039 98.705L358.85 99.2905C360.128 97.5214 361.296 95.2582 362.365 92.5244L361.434 92.16ZM358.039 98.705L357.223 98.127C356.096 99.718 354.907 100.825 353.672 101.504L354.154 102.38L354.636 103.256C356.201 102.395 357.602 101.052 358.855 99.283L358.039 98.705ZM354.154 102.38L353.661 101.51C352.418 102.214 351.049 102.57 349.534 102.57V103.57V104.57C351.379 104.57 353.09 104.132 354.647 103.25L354.154 102.38Z" fill="black" fill-opacity="0.4" mask="url(#path-10-outside-3_4_74)"/>
<path d="M106.248 75C106.248 33.5786 139.826 0 181.248 0C222.669 0 256.248 33.5786 256.248 75C256.248 116.421 222.669 150 181.248 150C139.826 150 106.248 116.421 106.248 75Z" fill="url(#paint1_linear_4_74)"/>
<path d="M181.248 0.5C222.393 0.5 255.748 33.8548 255.748 75C255.748 116.145 222.393 149.5 181.248 149.5C140.103 149.5 106.748 116.145 106.748 75C106.748 33.8548 140.103 0.5 181.248 0.5Z" stroke="white" stroke-opacity="0.3"/>
<mask id="path-14-outside-4_4_74" maskUnits="userSpaceOnUse" x="-0.752197" y="44" width="149" height="48" fill="black">
<rect fill="white" x="-0.752197" y="44" width="149" height="48"/>
<path d="M1.09851 91L5.36851 45.57H12.7885L10.9685 64.54H28.8185L30.6385 45.57H38.0585L33.7885 91H26.3685L28.1185 71.75H10.2685L8.51851 91H1.09851ZM41.0521 91L59.2521 45.57H68.5621L77.7321 91H69.8221L67.8621 81.2H52.7421L48.8921 91H41.0521ZM55.1921 74.97H66.6721L62.8221 55.37L55.1921 74.97ZM84.9755 91L89.2455 45.57H96.6655L93.0255 83.79H109.825L109.195 91H84.9755ZM116.147 91L120.417 45.57H146.177L145.477 52.71H127.137L126.017 64.68H142.747L142.047 71.75H125.317L123.567 91H116.147Z"/>
</mask>
<path d="M1.09851 91L5.36851 45.57H12.7885L10.9685 64.54H28.8185L30.6385 45.57H38.0585L33.7885 91H26.3685L28.1185 71.75H10.2685L8.51851 91H1.09851ZM41.0521 91L59.2521 45.57H68.5621L77.7321 91H69.8221L67.8621 81.2H52.7421L48.8921 91H41.0521ZM55.1921 74.97H66.6721L62.8221 55.37L55.1921 74.97ZM84.9755 91L89.2455 45.57H96.6655L93.0255 83.79H109.825L109.195 91H84.9755ZM116.147 91L120.417 45.57H146.177L145.477 52.71H127.137L126.017 64.68H142.747L142.047 71.75H125.317L123.567 91H116.147Z" fill="white"/>
<path d="M1.09851 91L0.102894 90.9064L0.000108719 92H1.09851V91ZM5.36851 45.57V44.57H4.45809L4.37289 45.4764L5.36851 45.57ZM12.7885 45.57L13.7839 45.6655L13.889 44.57H12.7885V45.57ZM10.9685 64.54L9.97308 64.4445L9.86797 65.54H10.9685V64.54ZM28.8185 64.54V65.54H29.7272L29.8139 64.6355L28.8185 64.54ZM30.6385 45.57V44.57H29.7299L29.6431 45.4745L30.6385 45.57ZM38.0585 45.57L39.0541 45.6636L39.1569 44.57H38.0585V45.57ZM33.7885 91V92H34.6989L34.7841 91.0936L33.7885 91ZM26.3685 91L25.3726 90.9095L25.2735 92H26.3685V91ZM28.1185 71.75L29.1144 71.8405L29.2135 70.75H28.1185V71.75ZM10.2685 71.75V70.75H9.35529L9.27261 71.6595L10.2685 71.75ZM8.51851 91V92H9.43172L9.5144 91.0905L8.51851 91ZM1.09851 91L2.09412 91.0936L6.36412 45.6636L5.36851 45.57L4.37289 45.4764L0.102894 90.9064L1.09851 91ZM5.36851 45.57V46.57H12.7885V45.57V44.57H5.36851V45.57ZM12.7885 45.57L11.7931 45.4745L9.97308 64.4445L10.9685 64.54L11.9639 64.6355L13.7839 45.6655L12.7885 45.57ZM10.9685 64.54V65.54H28.8185V64.54V63.54H10.9685V64.54ZM28.8185 64.54L29.8139 64.6355L31.6339 45.6655L30.6385 45.57L29.6431 45.4745L27.8231 64.4445L28.8185 64.54ZM30.6385 45.57V46.57H38.0585V45.57V44.57H30.6385V45.57ZM38.0585 45.57L37.0629 45.4764L32.7929 90.9064L33.7885 91L34.7841 91.0936L39.0541 45.6636L38.0585 45.57ZM33.7885 91V90H26.3685V91V92H33.7885V91ZM26.3685 91L27.3644 91.0905L29.1144 71.8405L28.1185 71.75L27.1226 71.6595L25.3726 90.9095L26.3685 91ZM28.1185 71.75V70.75H10.2685V71.75V72.75H28.1185V71.75ZM10.2685 71.75L9.27261 71.6595L7.52261 90.9095L8.51851 91L9.5144 91.0905L11.2644 71.8405L10.2685 71.75ZM8.51851 91V90H1.09851V91V92H8.51851V91ZM41.0521 91L40.1238 90.6281L39.5742 92H41.0521V91ZM59.2521 45.57V44.57H58.5755L58.3238 45.1981L59.2521 45.57ZM68.5621 45.57L69.5423 45.3721L69.3804 44.57H68.5621V45.57ZM77.7321 91V92H78.9541L78.7123 90.8021L77.7321 91ZM69.8221 91L68.8415 91.1961L69.0023 92H69.8221V91ZM67.8621 81.2L68.8427 81.0039L68.6819 80.2H67.8621V81.2ZM52.7421 81.2V80.2H52.0606L51.8113 80.8343L52.7421 81.2ZM48.8921 91V92H49.5736L49.8229 91.3657L48.8921 91ZM55.1921 74.97L54.2602 74.6072L53.7297 75.97H55.1921V74.97ZM66.6721 74.97V75.97H67.8876L67.6534 74.7773L66.6721 74.97ZM62.8221 55.37L63.8034 55.1773L63.1396 51.7979L61.8902 55.0072L62.8221 55.37ZM41.0521 91L41.9804 91.3719L60.1804 45.9419L59.2521 45.57L58.3238 45.1981L40.1238 90.6281L41.0521 91ZM59.2521 45.57V46.57H68.5621V45.57V44.57H59.2521V45.57ZM68.5621 45.57L67.5819 45.7679L76.7519 91.1979L77.7321 91L78.7123 90.8021L69.5423 45.3721L68.5621 45.57ZM77.7321 91V90H69.8221V91V92H77.7321V91ZM69.8221 91L70.8027 90.8039L68.8427 81.0039L67.8621 81.2L66.8815 81.3961L68.8415 91.1961L69.8221 91ZM67.8621 81.2V80.2H52.7421V81.2V82.2H67.8621V81.2ZM52.7421 81.2L51.8113 80.8343L47.9613 90.6343L48.8921 91L49.8229 91.3657L53.6729 81.5657L52.7421 81.2ZM48.8921 91V90H41.0521V91V92H48.8921V91ZM55.1921 74.97V75.97H66.6721V74.97V73.97H55.1921V74.97ZM66.6721 74.97L67.6534 74.7773L63.8034 55.1773L62.8221 55.37L61.8409 55.5627L65.6908 75.1627L66.6721 74.97ZM62.8221 55.37L61.8902 55.0072L54.2602 74.6072L55.1921 74.97L56.124 75.3328L63.754 55.7328L62.8221 55.37ZM84.9755 91L83.9799 90.9064L83.8771 92H84.9755V91ZM89.2455 45.57V44.57H88.335L88.2498 45.4764L89.2455 45.57ZM96.6655 45.57L97.661 45.6648L97.7652 44.57H96.6655V45.57ZM93.0255 83.79L92.03 83.6952L91.9257 84.79H93.0255V83.79ZM109.825 83.79L110.822 83.877L110.917 82.79H109.825V83.79ZM109.195 91V92H110.112L110.192 91.087L109.195 91ZM84.9755 91L85.9711 91.0936L90.2411 45.6636L89.2455 45.57L88.2498 45.4764L83.9799 90.9064L84.9755 91ZM89.2455 45.57V46.57H96.6655V45.57V44.57H89.2455V45.57ZM96.6655 45.57L95.67 45.4752L92.03 83.6952L93.0255 83.79L94.021 83.8848L97.661 45.6648L96.6655 45.57ZM93.0255 83.79V84.79H109.825V83.79V82.79H93.0255V83.79ZM109.825 83.79L108.829 83.703L108.199 90.913L109.195 91L110.192 91.087L110.822 83.877L109.825 83.79ZM109.195 91V90H84.9755V91V92H109.195V91ZM116.147 91L115.152 90.9064L115.049 92H116.147V91ZM120.417 45.57V44.57H119.507L119.422 45.4764L120.417 45.57ZM146.177 45.57L147.173 45.6676L147.28 44.57H146.177V45.57ZM145.477 52.71V53.71H146.384L146.473 52.8076L145.477 52.71ZM127.137 52.71V51.71H126.227L126.142 52.6168L127.137 52.71ZM126.017 64.68L125.022 64.5868L124.919 65.68H126.017V64.68ZM142.747 64.68L143.742 64.7785L143.851 63.68H142.747V64.68ZM142.047 71.75V72.75H142.953L143.042 71.8485L142.047 71.75ZM125.317 71.75V70.75H124.404L124.321 71.6595L125.317 71.75ZM123.567 91V92H124.481L124.563 91.0905L123.567 91ZM116.147 91L117.143 91.0936L121.413 45.6636L120.417 45.57L119.422 45.4764L115.152 90.9064L116.147 91ZM120.417 45.57V46.57H146.177V45.57V44.57H120.417V45.57ZM146.177 45.57L145.182 45.4724L144.482 52.6124L145.477 52.71L146.473 52.8076L147.173 45.6676L146.177 45.57ZM145.477 52.71V51.71H127.137V52.71V53.71H145.477V52.71ZM127.137 52.71L126.142 52.6168L125.022 64.5868L126.017 64.68L127.013 64.7732L128.133 52.8032L127.137 52.71ZM126.017 64.68V65.68H142.747V64.68V63.68H126.017V64.68ZM142.747 64.68L141.752 64.5815L141.052 71.6515L142.047 71.75L143.042 71.8485L143.742 64.7785L142.747 64.68ZM142.047 71.75V70.75H125.317V71.75V72.75H142.047V71.75ZM125.317 71.75L124.321 71.6595L122.571 90.9095L123.567 91L124.563 91.0905L126.313 71.8405L125.317 71.75ZM123.567 91V90H116.147V91V92H123.567V91Z" fill="black" fill-opacity="0.4" mask="url(#path-14-outside-4_4_74)"/>
<path d="M239.248 69V65C239.248 62.8783 238.405 60.8434 236.905 59.3431C235.404 57.8429 233.37 57 231.248 57H215.248C213.126 57 211.091 57.8429 209.591 59.3431C208.091 60.8434 207.248 62.8783 207.248 65V69M231.248 41C231.248 45.4183 227.666 49 223.248 49C218.83 49 215.248 45.4183 215.248 41C215.248 36.5817 218.83 33 223.248 33C227.666 33 231.248 36.5817 231.248 41Z" stroke="#1E1E1E" stroke-width="4" stroke-linecap="round" stroke-linejoin="round"/>
<path d="M162.248 122V118C162.248 115.878 161.405 113.843 159.905 112.343C158.404 110.843 156.37 110 154.248 110H138.248C136.126 110 134.091 110.843 132.591 112.343C131.091 113.843 130.248 115.878 130.248 118V122M154.248 94C154.248 98.4183 150.666 102 146.248 102C141.83 102 138.248 98.4183 138.248 94C138.248 89.5817 141.83 86 146.248 86C150.666 86 154.248 89.5817 154.248 94Z" stroke="#1E1E1E" stroke-width="4" stroke-linecap="round" stroke-linejoin="round"/>
<path d="M197.248 71C197.248 85 179.248 97 179.248 97C179.248 97 161.248 85 161.248 71C161.248 66.2261 163.144 61.6477 166.52 58.2721C169.896 54.8964 174.474 53 179.248 53C184.022 53 188.6 54.8964 191.976 58.2721C195.351 61.6477 197.248 66.2261 197.248 71Z" stroke="#1E1E1E" stroke-width="4" stroke-linecap="round" stroke-linejoin="round"/>
<path d="M179.248 77C182.562 77 185.248 74.3137 185.248 71C185.248 67.6863 182.562 65 179.248 65C175.934 65 173.248 67.6863 173.248 71C173.248 74.3137 175.934 77 179.248 77Z" stroke="#1E1E1E" stroke-width="4" stroke-linecap="round" stroke-linejoin="round"/>
<defs>
<linearGradient id="paint0_linear_4_74" x1="266.913" y1="62.8554" x2="176.288" y2="171.458" gradientUnits="userSpaceOnUse">
<stop stop-color="#F8A41E"/>
<stop offset="0.259615" stop-color="#FF5A00"/>
<stop offset="0.485577" stop-color="#E10044" stop-opacity="0.9"/>
<stop offset="0.677885" stop-color="#A7004C" stop-opacity="0.9"/>
<stop offset="0.889423" stop-color="#5A1D57" stop-opacity="0.9"/>
</linearGradient>
<linearGradient id="paint1_linear_4_74" x1="266.913" y1="62.8554" x2="176.288" y2="171.458" gradientUnits="userSpaceOnUse">
<stop stop-color="#F8A41E"/>
<stop offset="0.259615" stop-color="#FF5A00"/>
<stop offset="0.485577" stop-color="#E10044" stop-opacity="0.9"/>
<stop offset="0.677885" stop-color="#A7004C" stop-opacity="0.9"/>
<stop offset="0.889423" stop-color="#5A1D57" stop-opacity="0.9"/>
</linearGradient>
</defs>
</svg>
